<svg xmlns="http://www.w3.org/2000/svg" viewBox="0 0 187 41"><defs><style>.cls-1{fill:#d7e51a;}.cls-2{fill:#e6ecf4;}</style></defs><title>Asset 2</title><g id="Layer_2" data-name="Layer 2"><g id="Layer_1-2" data-name="Layer 1"><path class="cls-1" d="M17.5.1.23,10.06a.46.46,0,0,0-.23.4V30.54a.46.46,0,0,0,.23.4l17.27,10a.73.73,0,0,0,.73,0l17.27-10a.46.46,0,0,0,.23-.4V10.46a.46.46,0,0,0-.23-.4L18.23.1A.73.73,0,0,0,17.5.1ZM34.76,11V30a.39.39,0,0,1-.19.34L18,39.89a.34.34,0,0,1-.34,0L1.16,30.36A.39.39,0,0,1,1,30V11a.39.39,0,0,1,.19-.34L17.69,1.11a.34.34,0,0,1,.34,0l16.53,9.54A.39.39,0,0,1,34.76,11Z"/><path class="cls-1" d="M18.05,20.59v17a.2.2,0,0,0,.3.18L33,29.35A.38.38,0,0,0,33.2,29V12a.2.2,0,0,0-.3-.18L18.24,20.26A.38.38,0,0,0,18.05,20.59Z"/><path class="cls-1" d="M2.89,12.67a.52.52,0,0,1-.26-.07l-.07,0a.53.53,0,1,1,.53-.91l.07,0a.53.53,0,0,1-.26,1Z"/><path class="cls-1" d="M13.93,19a.53.53,0,0,1-.26-.07l-.14-.08a.53.53,0,1,1,.53-.91l.14.08a.53.53,0,0,1-.26,1Zm-2.21-1.27a.53.53,0,0,1-.26-.07l-.14-.08a.53.53,0,1,1,.53-.91l.14.08a.53.53,0,0,1-.26,1ZM9.52,16.49a.53.53,0,0,1-.26-.07l-.14-.08a.53.53,0,1,1,.53-.91l.14.08a.53.53,0,0,1-.26,1ZM7.31,15.22A.53.53,0,0,1,7,15.15l-.14-.08a.53.53,0,1,1,.53-.91l.14.08a.53.53,0,0,1-.26,1ZM5.1,13.95a.53.53,0,0,1-.26-.07L4.7,13.8a.53.53,0,1,1,.53-.91l.14.08a.53.53,0,0,1-.26,1Z"/><path class="cls-1" d="M16.07,20.27a.52.52,0,0,1-.26-.07l-.07,0a.53.53,0,1,1,.53-.91l.07,0a.53.53,0,0,1-.26,1Z"/><path class="cls-2" d="M55.7,24.71a4.73,4.73,0,0,1-1.78,3.9,7.76,7.76,0,0,1-5,1.43,11.67,11.67,0,0,1-5.18-1.1v-3.6a21.37,21.37,0,0,0,3.14,1.16,9.29,9.29,0,0,0,2.35.34,3.34,3.34,0,0,0,2-.49,1.67,1.67,0,0,0,.68-1.45,1.6,1.6,0,0,0-.3-1,3.36,3.36,0,0,0-.88-.81,22.76,22.76,0,0,0-2.37-1.24,11.24,11.24,0,0,1-2.52-1.51,5.68,5.68,0,0,1-1.34-1.69,4.82,4.82,0,0,1-.5-2.25,4.72,4.72,0,0,1,1.65-3.82,6.84,6.84,0,0,1,4.55-1.39,10.76,10.76,0,0,1,2.72.34,18.75,18.75,0,0,1,2.71,1l-1.25,3a18.33,18.33,0,0,0-2.42-.84A7.81,7.81,0,0,0,50,14.46a2.5,2.5,0,0,0-1.69.51,1.69,1.69,0,0,0-.59,1.34,1.66,1.66,0,0,0,.24.89,2.61,2.61,0,0,0,.76.74,23.38,23.38,0,0,0,2.46,1.28,9.79,9.79,0,0,1,3.52,2.46A4.8,4.8,0,0,1,55.7,24.71Z"/><path class="cls-2" d="M65.12,27a8.28,8.28,0,0,0,2.4-.44V29.4A8.58,8.58,0,0,1,64,30a4.29,4.29,0,0,1-3.34-1.16,5,5,0,0,1-1-3.47V18.66H57.81V17l2.1-1.28,1.1-3h2.44v3h3.92v2.86H63.46v6.74a1.49,1.49,0,0,0,.46,1.2A1.8,1.8,0,0,0,65.12,27Z"/><path class="cls-2" d="M78.68,15.54a6.17,6.17,0,0,1,1.29.11l-.29,3.58a4.38,4.38,0,0,0-1.13-.13,4.05,4.05,0,0,0-2.85.94,3.39,3.39,0,0,0-1,2.63v7.12H70.87v-14h2.89l.56,2.35h.19a5.26,5.26,0,0,1,1.76-1.9A4.34,4.34,0,0,1,78.68,15.54Z"/><path class="cls-2" d="M89.36,30a7.23,7.23,0,0,1-5.28-1.86,7.05,7.05,0,0,1-1.9-5.28,7.76,7.76,0,0,1,1.76-5.44,6.27,6.27,0,0,1,4.86-1.92,6.17,6.17,0,0,1,4.62,1.69,6.39,6.39,0,0,1,1.65,4.67v1.85H86a3.67,3.67,0,0,0,1,2.54,3.39,3.39,0,0,0,2.53.91,10.51,10.51,0,0,0,2.39-.26,12,12,0,0,0,2.35-.84v3a9,9,0,0,1-2.14.74A13.51,13.51,0,0,1,89.36,30Zm-.54-11.78a2.42,2.42,0,0,0-1.9.77,3.56,3.56,0,0,0-.79,2.18h5.36A3.18,3.18,0,0,0,90.75,19,2.5,2.5,0,0,0,88.83,18.25Z"/><path class="cls-2" d="M107.58,29.78l-.74-1.9h-.1a5.64,5.64,0,0,1-2,1.68,6.42,6.42,0,0,1-2.66.47,4.3,4.3,0,0,1-3.17-1.15,4.42,4.42,0,0,1-1.16-3.28,3.69,3.69,0,0,1,1.56-3.28,9,9,0,0,1,4.7-1.17l2.43-.08v-.61a1.9,1.9,0,0,0-2.18-2.13,9.93,9.93,0,0,0-3.94,1l-1.26-2.58a11.39,11.39,0,0,1,5.36-1.26,6.68,6.68,0,0,1,4.32,1.23,4.53,4.53,0,0,1,1.5,3.73v9.32Zm-1.13-6.48-1.48.05a4.73,4.73,0,0,0-2.48.6,1.89,1.89,0,0,0-.81,1.68q0,1.61,1.85,1.61a2.94,2.94,0,0,0,2.12-.76,2.68,2.68,0,0,0,.8-2Z"/><path class="cls-2" d="M127.23,29.78h-3.82V21.62a4.11,4.11,0,0,0-.51-2.27,1.78,1.78,0,0,0-1.6-.76,2.31,2.31,0,0,0-2.13,1.08,7,7,0,0,0-.66,3.54v6.58h-3.82v-14h2.92l.51,1.79h.21A3.88,3.88,0,0,1,120,16.08a5.29,5.29,0,0,1,2.44-.54q3.14,0,4.26,2.05H127a3.78,3.78,0,0,1,1.66-1.51,5.54,5.54,0,0,1,2.47-.54,4.88,4.88,0,0,1,3.6,1.22A5.35,5.35,0,0,1,136,20.66v9.12h-3.83V21.62a4.11,4.11,0,0,0-.51-2.27,1.78,1.78,0,0,0-1.6-.76,2.38,2.38,0,0,0-2.1,1,5.68,5.68,0,0,0-.69,3.18Z"/><path class="cls-2" d="M140.69,11.49h5.7q3.89,0,5.65,1.11a3.85,3.85,0,0,1,1.76,3.52,4.43,4.43,0,0,1-.77,2.69,3.08,3.08,0,0,1-2,1.26v.13a4,4,0,0,1,2.51,1.45,4.72,4.72,0,0,1,.77,2.83,4.66,4.66,0,0,1-1.81,3.9,7.83,7.83,0,0,1-4.91,1.4h-6.85Zm3.88,7.24h2.25a4.12,4.12,0,0,0,2.29-.49,1.82,1.82,0,0,0,.71-1.61,1.61,1.61,0,0,0-.77-1.51,5,5,0,0,0-2.44-.46h-2Zm0,3.08v4.77h2.53a3.75,3.75,0,0,0,2.37-.61,2.26,2.26,0,0,0,.76-1.88q0-2.28-3.26-2.28Z"/><path class="cls-2" d="M158.43,29.78V11.49h3.88V29.78Z"/><path class="cls-2" d="M175.18,29.78l-4.41-14.35h-.11q.24,4.38.24,5.84v8.51h-3.47V11.49h5.28l4.33,14h.08l4.6-14H187V29.78h-3.62V21.13q0-.61,0-1.41t.17-4.25h-.11l-4.72,14.32Z"/></g></g></svg>