<svg xmlns="http://www.w3.org/2000/svg" width="35" height="41" viewBox="0 0 35 41">
    <g fill="#D7E51A" fill-rule="evenodd">
        <path d="M33.893 10.713v18.584a.38.38 0 0 1-.19.329L17.587 38.93a.334.334 0 0 1-.333 0L1.136 29.626a.38.38 0 0 1-.19-.329V10.713a.38.38 0 0 1 .19-.329L17.253 1.08c.103-.06.23-.06.333 0l16.118 9.305a.38.38 0 0 1 .19.33M17.065.093L.226 9.818A.453.453 0 0 0 0 10.21v19.592c0 .162.086.311.226.392l16.84 9.723a.707.707 0 0 0 .707 0l16.84-9.723c.14-.08.226-.23.226-.392V10.209a.452.452 0 0 0-.226-.392L17.773.095a.707.707 0 0 0-.707 0"/>
        <path d="M17.601 19.917l-.006 17.15a.2.2 0 0 0 .3.174l14.488-8.364a.375.375 0 0 0 .187-.325l.006-17.15a.2.2 0 0 0-.3-.174l-14.487 8.365a.374.374 0 0 0-.188.324M13.764 18.293l.006.037a.461.461 0 0 0 .298.353l.078.029a.461.461 0 0 0 .611-.514l-.006-.037a.462.462 0 0 0-.298-.354l-.078-.028a.461.461 0 0 0-.611.514M15.766 19.45l.006.037a.461.461 0 0 0 .298.354l.078.028a.461.461 0 0 0 .611-.514l-.006-.037a.462.462 0 0 0-.298-.354l-.078-.028a.461.461 0 0 0-.611.514M11.776 17.151l.006.037a.461.461 0 0 0 .298.354l.078.028a.461.461 0 0 0 .612-.514l-.007-.037a.462.462 0 0 0-.298-.354l-.078-.028a.462.462 0 0 0-.611.514M9.791 16.01l.007.037a.462.462 0 0 0 .297.354l.075.027a.461.461 0 0 0 .611-.514l-.006-.036a.461.461 0 0 0-.298-.354l-.075-.027a.461.461 0 0 0-.61.514M7.803 14.87l.007.036a.461.461 0 0 0 .297.354l.079.028a.461.461 0 0 0 .61-.514l-.006-.037a.462.462 0 0 0-.297-.354l-.079-.028a.462.462 0 0 0-.61.514M5.815 13.727l.007.037a.461.461 0 0 0 .297.354l.079.028a.461.461 0 0 0 .61-.514l-.006-.037a.462.462 0 0 0-.297-.354l-.078-.028a.461.461 0 0 0-.612.514M3.829 12.586l.006.037a.461.461 0 0 0 .298.354l.077.027a.461.461 0 0 0 .611-.514l-.006-.036a.462.462 0 0 0-.298-.354l-.077-.028a.461.461 0 0 0-.611.514M1.841 11.444l.007.037a.461.461 0 0 0 .297.354l.079.028a.461.461 0 0 0 .61-.514l-.006-.037a.462.462 0 0 0-.297-.353l-.079-.029a.461.461 0 0 0-.61.514"/>
    </g>
</svg>
