<svg xmlns="http://www.w3.org/2000/svg" viewBox="0 0 2621.547 1850.947" height="1850.947" width="2621.547" xml:space="preserve" version="1.1"><path d="M1249.219 1419.573l36.028-37.813c-6.715 5.773-13.768 11.04-21.582 15.8-8.928 7.147-10.71 13.76-14.446 22.013M1326.103 1328.479c-4.715 2.373-10.934 6.574-14.311 8.388 4.452-2.2 9.195-4.988 14.31-8.388M1329.759 1333.248l-.171.339 17.172-21.412c-7.227 6.634-14.196 12.057-20.657 16.304 5.36-2.622 8.764-3.05 3.656 4.769M1325.172 1340.213l4.416-6.626-10.865 13.253zM1377.68 1277.685c-11.467 11.291-21.413 22.856-30.92 34.49 9.68-8.92 20.133-20.134 30.92-34.49M1311.792 1336.867c-.35.173-.712.373-1.057.546a22.13 22.13 0 0 0 1.057-.546M1547.613 1057.572c1.24-.944 2.587-2.025 4.08-3.26-1.373 1.081-2.72 2.173-4.08 3.26M1851.173 533.807c2.734 3.398 5.934 7.225 10.027 11.912-3.36-4.03-6.693-7.966-10.027-11.912" fill="#f1491c" fill-opacity="1" fill-rule="nonzero" stroke="none"/><path d="M2137.525 442.064c-14.958 21.69-32.94 36.892-50.31 49.278 12.9-19.704 32.312-41.769 52.111-58.594-.595 3.103-1.254 6.197-1.801 9.316zm-7.334 177.418l-8.734-10.552c-14.829-17.301-33.228-37.881-54.056-60.614a7527.418 7527.418 0 0 0 66.167-80.465c-3.699 27.576-5.629 55.66-5.484 84.156-.145 23.016.66 45.425 2.107 67.475zm481.25 631.695l-.58-1.017-8.942-15.554-3.2-5.541c62.918-53.167-28.533 23.929 11.788-10.266l-.096-.092-.58-.511-1.19-1.015-2.3-2.04-9.344-8.323c-8.234-7.322-16.324-14.674-24.254-22.155-8.411-14.188-17.112-28.183-26.2-41.82-25.074-40.28-52.785-78.43-80.047-116.912l-152.632-184.463c-45.999-102.066-68.29-206.595-64.945-321.325 2.702-90.146 27.937-178.763 77.136-257.78 24.286-39.594 55.23-76.296 90.309-110.023 8.492-8.67 17.66-16.92 27.277-24.737l14.186-11.966 3.49-3.056.933-.772.418-.337.258-.177c-45.356-42.445 73.758 68.708-39.501-37.25l5.436-7.527 2.364-3.393 1.19-1.609.258-.434c-72.971-68.306-20.314-18.85-36.703-34.065l-.16.161-.853.692-6.546 5.516-4.487 3.732c-11.741-10.985-24.93-23.321-39.694-37.12l-1.432 2.122-5.967 8.331-47.993 67.374c-67.969 96.099-136.71 177.063-192.02 260.415-37.62 51.619-73.663 88.027-107.229 127.024-113.983-119.56-255.421-260.38-327.7-325.244-156.42-112.247-125.5-.338-120.979 8.492 49.853 116.28 160.335 207.813 310.265 385.292-24.624-30.57 4.069-10.63 48.202 29.295.66-.044 2.718 1.293 5.147 3.166-.258.285-.483.56-.724.842 2.895 2.642 5.854 5.383 8.862 8.165-9.457 15.556-32.2 25.143-41.077 40.881-25.074 30.5-44.02 61.94-68.323 96.858-9.344 15.894-18.77 5.01-23.45 12.91-55.552 73.16-48.668 89.566-77.747 116.822-20.056 19.883-38.472 37.312-56.501 54.305-10.953 11.216-21.649 22.434-32.103 35.005l-18.084 25.904c-44.534 62.372-97.72 132.893-148.36 197.296h1.706c30.013-35.018 61.294-67.571 98.894-97.683-12.64 9.637-12.281 4.24 2.04-12.863l17.84-9.255c-25.495 34.49-50.894 68.907-85.734 91.678l-14.867 23.444c-10.533 8.665-13.427 5.094-18.173 4.68l-18.187 21.654c18.68-10.022 67.706-50.216 67.706-50.216 80.8-89.797 111.488-103.986 185.568-186.743 3.474-8.237 40.852-42.057 49.537-49.54 7.64-5.007 23.29-20.557 29.739-26.506l29.818-26.416 23.016-14.267.177-.357c4.664-7.978 1.35-7.466-3.828-4.576-4.938 3.652-9.972 6.748-14.395 9.16 3.169-1.842 9.554-6.468 14.395-9.16 6.208-4.513 12.915-10.204 19.895-17.163 4.101-5.449 8.364-10.9 12.803-16.363-3.314 4.357-6.643 8.865-9.956 13.388-.949.978-1.914 2.044-2.847 2.975l-16.244 22.096-4.23 6.869 73.485-83.09c5.18-6.627 10.181-13.083 14.105-18.271 15.714-21.662 31.17-43.498 47.157-51.736l12.996-14.96-3.41 2.125c2.139-1.952 4.085-3.485 5.693-4.759 4.906-5.676 12.03-10.626 20.12-15.263 30.415 32.439 58.464 65.818 75.127 92.914 42.927 71.324 102.146 142.752 165.611 217.198 25.525 50.225 55.585 98.75 89.794 146.369 46.337 64 98.737 121.588 155.045 173.7 3.168 5.394 6.32 10.77 9.36 16.2l12.755 22.082 3.136 5.53.16.329c4.295-3.595 8.38-7.062 12.401-10.458 2.59 2.226 5.147 4.521 7.736 6.73l6.803 5.857 3.394 2.971 1.801 1.447c38.73-32.628-86.4 73.328 86.916-73.15l-.177-.251-.258-.426" fill="#f1491c" fill-opacity="1" fill-rule="nonzero" stroke="none"/><path d="M1872.267 604.092c-23.387 27.69-45.4 54.59-64.16 80.544 26.626-33.167 48.506-60.18 64.16-80.544M1899.107 563.055c-1.254 6.24-10.76 20.134-26.84 41.037 10.293-12.17 20.826-24.497 31.533-36.984-1.507-1.379-2.947-2.668-4.427-4.007-.066.007-.24-.086-.266-.046M1451.693 1129.763c25.907-34.072 84.36-127.799 42.12-79.536-63.12 72.737-102.453 121.67-159.133 186.926-43.233 55.654-84.441 109.607-129.556 165.767-13.26 15.12-26.935 28.2-40.617 41.373 18.522-16.48 37.465-33.56 58.12-52.68 28.03-24.373 45.117-69.589 82.069-114.189 4.928-7.648 14.027 3.565 23.883-11.89 25.914-34.078 45.888-65.083 72.554-94.315 9.934-15.64 40.867-25.995 50.56-41.456" fill="#f1491c" fill-opacity="1" fill-rule="nonzero" stroke="none"/><path d="M630.428 745.216a1260.042 1260.042 0 0 1-159.308 28.035c-53.78 6.036-108.07 9.004-162.787 9.004-117.762 0-198.56-20.898-242.486-62.87C21.918 677.5 0 602.56 0 494.827V345.12c0-92.867 20.05-161.427 60.241-205.787 40.268-44.346 103.14-66.52 188.615-66.52h307.74c92.015 0 154.884 24.64 188.959 73.92 33.982 49.2 51.064 139.254 51.064 270.014v146.65c0 207.9-46.984 368.48-140.787 482-93.8 113.423-226.26 170.179-397.288 170.179-14.275 0-24.895-.17-32.119-.51-7.136-.427-13.846-1.194-20.304-2.55l-100.005-179.363h46.221c155.398 0 267.804-21.838 337.05-65.416 69.158-43.592 116.232-117.764 141.041-222.52zm8.324-171.29a868.01 868.01 0 0 0 3.145-36.36c.596-11.555 1.019-21.58 1.019-30.086 0-109.68-9.512-177.827-28.381-204.587-18.775-26.68-60.147-40.013-124.127-40.013H288.193c-51.061 0-86.233 9.853-105.522 29.48-19.29 19.707-28.975 56.24-28.975 109.68v62.2c0 54.205 10.793 90.739 32.373 109.687 21.664 19.032 65.08 28.465 130.419 28.465 46.052 0 96.26-2.297 150.81-6.884 54.46-4.587 111.638-11.727 171.454-21.581" fill="#231f20" fill-opacity="1" fill-rule="evenodd" stroke="none"/><path d="M1419.4 745.216c-52.333 12.74-105.527 22.09-159.307 28.035-53.868 6.036-108.073 9.004-162.788 9.004-117.761 0-198.561-20.898-242.489-62.87-43.925-41.886-65.848-116.825-65.848-224.558V345.12c0-92.867 20.052-161.427 60.327-205.787 40.185-44.346 103.058-66.52 188.537-66.52h307.728c91.947 0 154.987 24.64 188.973 73.92 33.987 49.2 51.054 139.254 51.054 270.014v146.65c0 207.9-46.974 368.48-140.787 482-93.707 113.423-226.17 170.179-397.28 170.179-14.28 0-24.988-.17-32.123-.51-7.052-.427-13.934-1.194-20.305-2.55l-100.007-179.363h46.138c155.482 0 267.889-21.838 337.138-65.416 69.159-43.592 116.226-117.764 141.039-222.52zm8.333-171.29c1.36-12.655 2.454-24.722 3.04-36.36.694-11.555 1.12-21.58 1.12-30.086 0-109.68-9.52-177.827-28.293-204.587-18.947-26.68-60.333-40.013-124.224-40.013h-202.208c-51.063 0-86.237 9.853-105.612 29.48-19.203 19.707-28.888 56.24-28.888 109.68v62.2c0 54.205 10.792 90.739 32.372 109.687 21.661 19.032 65.081 28.465 130.417 28.465 46.051 0 96.268-2.297 150.812-6.884 54.466-4.587 111.651-11.727 171.464-21.581" fill="#231f20" fill-opacity="1" fill-rule="evenodd" stroke="none"/><path d="M98.923 1847.88l-75.836-198.147h-1.223c1.427 15.694 2.14 34.347 2.14 55.96v142.187H0v-223.533h39.142l70.79 184.4h1.223l71.402-184.4h38.835v223.533H195.4v-144.027c0-16.506.712-34.453 2.141-53.813h-1.224l-76.447 197.84H98.923M387.284 1753.4l-25.992-69.267c-3.365-8.76-6.83-19.52-10.397-32.266-2.244 9.786-5.455 20.546-9.632 32.266l-26.299 69.267zm35.93 94.48l-27.827-71.093h-89.598l-27.52 71.093h-26.298l88.373-224.44h21.864l87.915 224.44h-26.91M642.313 1847.88h-30.58l-81.492-108.4-23.393 20.8v87.6h-25.992v-223.533h25.992V1735.2l101.37-110.853h30.731l-89.901 97.093 93.265 126.44M797.655 1847.88h-124.61v-223.533h124.61v23.093h-98.618v72.014h92.655v22.933h-92.655v82.253h98.618v23.24M928.533 1847.88v-223.533h25.992v223.533h-25.992M1084.637 1847.88h-25.992v-200.44h-70.789v-23.093h167.573v23.093h-70.792v200.44M1396.547 1788.413c0 19.667-7.134 35.013-21.414 46.013-14.266 11.014-33.626 16.52-58.094 16.52-26.504 0-46.89-3.413-61.159-10.252v-25.068c9.175 3.868 19.163 6.934 29.968 9.174 10.804 2.24 21.505 3.36 32.108 3.36 17.324 0 30.377-3.294 39.137-9.867 8.774-6.573 13.147-15.72 13.147-27.44 0-7.746-1.547-14.093-4.653-19.04-3.12-4.933-8.307-9.493-15.6-13.68-7.294-4.173-18.372-8.92-33.254-14.213-20.794-7.44-35.65-16.266-44.569-26.453-8.92-10.2-13.377-23.494-13.377-39.907 0-17.227 6.47-30.933 19.416-41.133 12.944-10.187 30.069-15.28 51.373-15.28 22.224 0 42.664 4.066 61.317 12.226l-8.106 22.627c-18.454-7.747-36.387-11.613-53.822-11.613-13.761 0-24.516 2.946-32.261 8.866-7.748 5.907-11.62 14.12-11.62 24.614 0 7.746 1.425 14.093 4.281 19.04 2.852 4.933 7.668 9.466 14.448 13.6 6.778 4.133 17.148 8.693 31.12 13.68 23.44 8.36 39.574 17.333 48.387 26.92 8.813 9.573 13.227 22.013 13.227 37.306M1541.187 1847.88l-75.84-198.147h-1.227c1.427 15.694 2.147 34.347 2.147 55.96v142.187h-24v-223.533h39.133l70.787 184.4h1.226l71.4-184.4h38.84v223.533h-25.986v-144.027c0-16.506.706-34.453 2.133-53.813h-1.227l-76.44 197.84h-20.946M1829.547 1753.4l-26-69.267c-3.36-8.76-6.827-19.52-10.387-32.266-2.253 9.786-5.453 20.546-9.64 32.266l-26.293 69.267zm35.933 94.48l-27.827-71.093h-89.6l-27.52 71.093h-26.306l88.373-224.44h21.867l87.92 224.44h-26.907M1949.107 1732.6h35.626c18.347 0 31.8-3.64 40.36-10.934 8.56-7.28 12.854-18.213 12.854-32.8 0-14.773-4.36-25.426-13.08-31.946-8.72-6.52-22.707-9.787-41.974-9.787h-33.786zm0 22.32v92.96h-25.987v-223.533h61.307c27.413 0 47.68 5.253 60.773 15.746 13.093 10.507 19.653 26.307 19.653 47.4 0 29.56-14.986 49.547-44.96 59.933l60.707 100.454h-30.733l-54.12-92.96h-46.64M2185.486 1847.88h-25.982v-200.44h-70.79v-23.094h167.575v23.093h-70.803v200.441M2414.53 1847.88h-124.608v-223.535h124.608v23.094h-98.61v72.014h92.655v22.933h-92.656v82.254h98.61v23.24M2490.045 1732.6h35.624c18.35 0 31.812-3.64 40.368-10.933 8.556-7.28 12.834-18.213 12.834-32.8 0-14.773-4.358-25.426-13.059-31.946-8.733-6.52-22.71-9.787-41.977-9.787h-33.79zm0 22.32v92.96h-25.99v-223.532h61.308c27.422 0 47.686 5.252 60.778 15.745 13.092 10.507 19.637 26.307 19.637 47.401 0 29.56-14.973 49.546-44.952 59.933l60.714 100.453h-30.735l-54.136-92.96h-46.624" fill="#231f20" fill-opacity="1" fill-rule="nonzero" stroke="none"/></svg>