<?xml version="1.0" encoding="utf-8"?>
<!-- Generator: Adobe Illustrator 21.0.0, SVG Export Plug-In . SVG Version: 6.00 Build 0)  -->
<svg version="1.1" id="Layer_1" xmlns="http://www.w3.org/2000/svg" xmlns:xlink="http://www.w3.org/1999/xlink" x="0px" y="0px"
	 viewBox="0 0 492 142" style="enable-background:new 0 0 492 142;" xml:space="preserve">
<style type="text/css">
	.st0{fill:#939598;}
	.st1{fill:url(#SVGID_1_);}
	.st2{fill:#231F20;}
	.st3{fill:#808285;}
</style>
<g>
	<g>
		<g>
			<g>
				<path class="st0" d="M132.5,119.6c-1.3,0-2.3-0.7-3.3-1.7l0,0L118,106.7c-2.5-2.6-4.3-6.9-4.4-10.5l0,0V17.3l0,0
					c0-1.3,0-2.2,0.7-3.2l0,0c0.2-0.3,0.8-0.7,1.4-0.7l0,0c1.1,0.1,1.5,0.7,1.8,1.1l0,0c0.3,0.5,0.6,1.1,0.9,1.8l0,0l15,37.9
					c1.2,3.1,2.1,7.9,2.1,11.3l0,0v49.7c0,1.1-0.2,2.1-0.7,2.9l0,0C134.6,118.9,133.6,119.6,132.5,119.6L132.5,119.6
					C132.6,119.6,132.6,119.6,132.5,119.6L132.5,119.6z M116.6,96.2c-0.1,2.5,1.7,6.7,3.5,8.4l0,0l11.2,11.2c0.6,0.6,1,0.8,1.2,0.8
					l0,0l0,0l0,0c0.1-0.1,0.2-0.6,0.2-1.4l0,0V65.5c0-2.8-0.9-7.6-1.9-10.2l0,0l-14.2-35.8L116.6,96.2L116.6,96.2z"/>
			</g>
		</g>
		<g>
			<g>
				<path class="st0" d="M84.7,130.3c-3.3,0-8.2-0.8-11.3-1.8l0,0l-47.6-15.6c-0.8-0.3-1.4-0.5-1.9-0.8l0,0
					c-0.4-0.3-1.1-0.5-1.3-1.8l0,0c0-0.7,0.5-1.3,0.8-1.4l0,0c0.3-0.2,0.6-0.3,0.9-0.4l0,0c0.6-0.1,1.3-0.2,2.1-0.2l0,0v1.5v0.3
					v-0.3v-1.5h75c3.6,0.1,8,1.9,10.5,4.4l0,0l11.2,11.2c1,1,1.6,2,1.7,3.3l0,0c0,1-0.6,2-1.4,2.5l0,0c-0.8,0.5-1.8,0.7-2.9,0.7l0,0
					H84.7V130.3z M120.6,127.4c0.8,0,1.3-0.2,1.4-0.3l0,0c0-0.1-0.2-0.6-0.8-1.2l0,0L110,114.7c-1.7-1.8-5.9-3.6-8.4-3.5l0,0H30.3
					l44.1,14.4c2.7,0.9,7.6,1.7,10.4,1.7l0,0h35.8V127.4z"/>
			</g>
		</g>
		<g>
			<g>
				<path class="st0" d="M31,101.2c-7.6,0-13.9-6.2-13.9-13.9l0,0V25.4c0-7.6,6.2-13.9,13.9-13.9l0,0h61.9c7.6,0,13.9,6.2,13.9,13.9
					l0,0v61.9l0,0c0,7.6-6.2,13.9-13.9,13.9l0,0H31L31,101.2z M20.6,25.4v61.9c0,5.7,4.7,10.4,10.4,10.4l0,0h61.9
					c5.7,0,10.4-4.7,10.4-10.4l0,0V25.4c0-5.7-4.7-10.4-10.4-10.5l0,0H31C25.3,15,20.6,19.7,20.6,25.4L20.6,25.4z"/>
			</g>
		</g>
		<g>
			<g>
				
					<linearGradient id="SVGID_1_" gradientUnits="userSpaceOnUse" x1="67.1353" y1="109.4228" x2="109.2268" y2="61.1415" gradientTransform="matrix(1 0 0 -1 0 168.0999)">
					<stop  offset="3.296700e-02" style="stop-color:#F06327"/>
					<stop  offset="0.4309" style="stop-color:#ED6028"/>
					<stop  offset="0.6702" style="stop-color:#E35728"/>
					<stop  offset="0.8668" style="stop-color:#D64828"/>
					<stop  offset="1" style="stop-color:#C93A28"/>
				</linearGradient>
				<path class="st1" d="M106.8,86.2c0,8.8-6.4,15.3-13.5,15.3c-7.4,0-28.9,0-28.9,0v-35c0,0-1.2-8.5,8.5-8.5h33.9
					C106.8,57.9,106.8,83.6,106.8,86.2z"/>
			</g>
		</g>
		<g>
			<path class="st0" d="M74.1,121.3c-6.3,0-11.4-5.1-11.4-11.4l0,0V68.2c0-6.3,5.1-11.4,11.4-11.4l0,0h40.5
				c6.3,0,11.4,5.1,11.4,11.4l0,0v41.7c0,6.3-5.1,11.4-11.4,11.4l0,0H74.1L74.1,121.3z M66.1,68.2v41.7c0,4.4,3.6,8,8,8l0,0h40.5
				c4.4,0,8-3.6,8-8l0,0V68.2c0-4.4-3.6-8-8-8l0,0H74.1C69.7,60.2,66.1,63.8,66.1,68.2L66.1,68.2z"/>
		</g>
	</g>
	<g>
		<g>
			<path class="st2" d="M204.1,89.2c-3.4,2.7-10.3,7.1-20.4,7.1c-11.1,0-16.1-5.9-16.1-14.4V51.2c0-8.6,4.9-14.4,16.1-14.4
				c10,0,16.8,4.5,20.3,7.1V15c0-0.9,0.4-1.4,1.3-1.4h3.4c1.1,0,1.4,0.5,1.4,1.4V94c0,0.9-0.4,1.4-1.4,1.4h-2.9
				c-1.1,0-1.4-0.5-1.4-1.4L204.1,89.2z M173.7,81.1c0,5.4,3.3,9.7,11.5,9.7c9.4,0,16.1-4.9,18.7-6.9V49.3c-2.7-2.2-9.4-7-18.7-7
				c-8.2,0-11.5,4.2-11.5,9.6V81.1z"/>
			<path class="st2" d="M233.7,62.4V94c0,0.9-0.4,1.4-1.3,1.4h-3.5c-0.9,0-1.4-0.5-1.4-1.4V17.1c0-0.9,0.5-1.4,1.3-1.4h22.8
				c18.9,0,24.5,7.4,24.5,16.5v13.6c0,7.5-3.6,13.7-15,15.8l16.1,32.3c0.4,0.8-0.2,1.4-1.3,1.4h-3.5c-1.2,0-1.4-0.6-1.8-1.4
				l-15.5-31.8c-1.2,0.1-2.3,0.1-3.5,0.1h-17.9V62.4z M233.7,21.1v36h17.9c13.7,0,18.3-4.9,18.3-12.1V33.2c0-7.1-4.6-12.1-18.3-12.1
				L233.7,21.1L233.7,21.1z"/>
			<path class="st2" d="M289.3,51.2c0-8.6,5.5-14.5,21.2-14.5s21.2,6,21.2,14.5v30.7c0,8.4-5.5,14.4-21.2,14.4s-21.2-6-21.2-14.4
				V51.2z M325.6,51.6c0-5.7-3.6-9.7-15.1-9.7s-15.1,4-15.1,9.7v29.9c0,5.9,3.6,9.7,15.1,9.7s15.1-3.9,15.1-9.7V51.6z"/>
			<path class="st2" d="M348.9,37.9V27.2c0-8.6,5.3-14.4,21.1-14.4h0.6c0.9,0,1.4,0.4,1.4,1.4v2.3c0,1.1-0.5,1.5-1.4,1.5H370
				c-11.6,0-14.9,4-14.9,9.7v10.1h13.6c0.9,0,1.4,0.4,1.4,1.3v2.3c0,1.1-0.5,1.4-1.4,1.4h-13.6V94c0,0.9-0.5,1.4-1.4,1.4h-3.4
				c-0.9,0-1.4-0.5-1.4-1.4V42.9h-7.6c-0.9,0-1.3-0.3-1.3-1.4v-1.9c0-1.1,0.4-1.4,1.3-1.4l6.6-0.4L348.9,37.9L348.9,37.9z"/>
			<path class="st2" d="M414.4,89.3c-3.2,2.7-9.6,7-19.6,7c-10.9,0-16.1-5.9-16.1-13.9V39.2c0-1.1,0.4-1.5,1.3-1.5h3.4
				c0.9,0,1.4,0.5,1.4,1.5v41.9c0,5.7,3.3,9.7,11.5,9.7c9.3,0,15.3-4.7,18-6.9V39.1c0-1.1,0.4-1.5,1.3-1.5h3.4
				c0.9,0,1.3,0.5,1.3,1.5V94c0,1.1-0.4,1.4-1.3,1.4h-3c-0.9,0-1.4-0.4-1.4-1.4L414.4,89.3z"/>
			<path class="st2" d="M468.3,49.5c0-4.9-4.3-8.1-14.2-8.1c-9.7,0-13.9,3.2-13.9,8.1v3.6c0,4,3.7,6.4,6.6,7.3l18.3,5.7
				c5.5,1.8,9.8,5.3,9.8,10.7v6.9c0,6.9-6.2,12.7-20.7,12.7s-20.5-5.7-20.5-12.7v-3.3c0-0.8,0.4-1.3,1.3-1.3h3.2
				c0.8,0,1.2,0.5,1.2,1.3v3c0,4.9,4.9,8.2,14.9,8.2c10.1,0,15.1-3.3,15.1-8.2v-5.3c0-3.9-3.4-5.9-7.4-7.1l-18.3-5.7
				c-4-1.3-9.1-5.3-9.1-11.1v-4.7c0-6.9,5.4-12.8,19.8-12.8c14.3,0,19.8,5.9,19.8,12.8v3.6c0,0.9-0.4,1.3-1.4,1.3h-3
				c-0.8,0-1.3-0.3-1.3-1.3v-3.6H468.3z"/>
		</g>
	</g>
	<g>
		<path class="st3" d="M167.6,129.5l6.4-16.6h2.4l6.8,16.6h-2.5l-1.9-5h-6.9l-1.8,5H167.6z M172.4,122.7h5.6l-1.7-4.6
			c-0.5-1.4-0.9-2.5-1.2-3.4c-0.2,1.1-0.5,2.1-0.9,3.2L172.4,122.7z"/>
		<path class="st3" d="M190.4,129.5v-16.6h2.2l8.7,13v-13h2.1v16.6h-2.2l-8.7-13v13H190.4z"/>
		<path class="st3" d="M207.4,129.5v-16.6h12v2h-9.8v5.1h9.2v1.9h-9.2v5.6h10.2v2H207.4z"/>
		<path class="st3" d="M223,129.5v-16.6h3.3l3.9,11.7c0.4,1.1,0.6,1.9,0.8,2.5c0.2-0.6,0.5-1.5,0.9-2.7l4-11.5h2.9v16.6h-2.1v-13.9
			l-4.8,13.9h-2l-4.8-14.1v14.1H223z"/>
		<path class="st3" d="M242.6,129.5v-16.6h12v2h-9.8v5.1h9.2v1.9h-9.2v5.6H255v2H242.6z"/>
		<path class="st3" d="M262.5,129.5v-14.6H257v-2h13.1v2h-5.5v14.6H262.5z"/>
		<path class="st3" d="M271.9,124.2l2.1-0.2c0.1,0.8,0.3,1.5,0.7,2c0.4,0.5,0.9,1,1.7,1.3s1.6,0.5,2.5,0.5c0.8,0,1.6-0.1,2.2-0.4
			c0.6-0.2,1.1-0.6,1.4-1s0.5-0.9,0.5-1.4s-0.1-1-0.5-1.4c-0.3-0.4-0.8-0.7-1.5-1c-0.4-0.2-1.4-0.4-2.9-0.8s-2.6-0.7-3.2-1
			c-0.8-0.4-1.4-0.9-1.8-1.5s-0.6-1.3-0.6-2.1c0-0.8,0.2-1.6,0.7-2.3c0.5-0.7,1.2-1.3,2.1-1.7c0.9-0.4,1.9-0.6,3-0.6
			c1.2,0,2.3,0.2,3.2,0.6c0.9,0.4,1.7,1,2.2,1.7c0.5,0.8,0.8,1.6,0.8,2.6l-2.1,0.2c-0.1-1-0.5-1.8-1.1-2.4c-0.7-0.5-1.6-0.8-2.9-0.8
			s-2.3,0.2-2.9,0.7s-0.9,1.1-0.9,1.8c0,0.6,0.2,1.1,0.6,1.5s1.5,0.8,3.3,1.2c1.8,0.4,3,0.8,3.7,1.1c1,0.4,1.7,1,2.1,1.7
			c0.5,0.7,0.7,1.5,0.7,2.4s-0.3,1.7-0.8,2.5s-1.2,1.4-2.2,1.8c-0.9,0.4-2,0.7-3.2,0.7c-1.5,0-2.8-0.2-3.8-0.7c-1-0.4-1.8-1.1-2.4-2
			C272.2,126.3,271.9,125.3,271.9,124.2z"/>
		<path class="st3" d="M300.1,123.7l2.2,0.6c-0.5,1.8-1.3,3.2-2.5,4.1s-2.7,1.4-4.4,1.4c-1.8,0-3.2-0.4-4.4-1.1
			c-1.1-0.7-2-1.8-2.6-3.2c-0.6-1.4-0.9-2.9-0.9-4.4c0-1.7,0.3-3.2,1-4.5s1.6-2.3,2.8-2.9c1.2-0.7,2.6-1,4-1c1.7,0,3.1,0.4,4.2,1.3
			c1.1,0.8,1.9,2,2.4,3.6l-2.2,0.5c-0.4-1.2-0.9-2.1-1.7-2.6c-0.7-0.6-1.6-0.8-2.8-0.8c-1.3,0-2.3,0.3-3.2,0.9
			c-0.9,0.6-1.5,1.4-1.8,2.5c-0.3,1-0.5,2.1-0.5,3.2c0,1.4,0.2,2.6,0.6,3.7s1,1.8,1.9,2.4c0.9,0.5,1.8,0.8,2.8,0.8
			c1.2,0,2.3-0.4,3.1-1.1C299.2,126.1,299.8,125.1,300.1,123.7z"/>
		<path class="st3" d="M305.3,129.5v-16.6h2.2v6.8h8.6v-6.8h2.2v16.6h-2.2v-7.8h-8.6v7.8H305.3z"/>
		<path class="st3" d="M322.2,129.5v-16.6h12v2h-9.8v5.1h9.2v1.9h-9.2v5.6h10.2v2H322.2z"/>
		<path class="st3" d="M337.7,129.5v-16.6h2.2v8.2l8.2-8.2h3l-7,6.7l7.3,9.9h-2.9l-5.9-8.4l-2.7,2.6v5.7L337.7,129.5L337.7,129.5z"
			/>
		<path class="st3" d="M372,123.7l2.2,0.6c-0.5,1.8-1.3,3.2-2.5,4.1s-2.7,1.4-4.4,1.4c-1.8,0-3.2-0.4-4.4-1.1
			c-1.1-0.7-2-1.8-2.6-3.2c-0.6-1.4-0.9-2.9-0.9-4.4c0-1.7,0.3-3.2,1-4.5s1.6-2.3,2.8-2.9c1.2-0.7,2.6-1,4-1c1.7,0,3.1,0.4,4.2,1.3
			c1.1,0.8,1.9,2,2.4,3.6l-2.2,0.5c-0.4-1.2-0.9-2.1-1.7-2.6c-0.7-0.6-1.6-0.8-2.8-0.8c-1.3,0-2.3,0.3-3.2,0.9s-1.5,1.4-1.8,2.5
			c-0.3,1-0.5,2.1-0.5,3.2c0,1.4,0.2,2.6,0.6,3.7c0.4,1.1,1,1.8,1.9,2.4c0.9,0.5,1.8,0.8,2.8,0.8c1.2,0,2.3-0.4,3.1-1.1
			C371.1,126.1,371.7,125.1,372,123.7z"/>
		<path class="st3" d="M376.4,121.4c0-2.8,0.7-4.9,2.2-6.5s3.4-2.3,5.7-2.3c1.5,0,2.9,0.4,4.1,1.1c1.2,0.7,2.2,1.7,2.8,3.1
			c0.6,1.3,1,2.8,1,4.4c0,1.7-0.3,3.2-1,4.5s-1.6,2.3-2.9,3c-1.2,0.7-2.6,1-4,1c-1.6,0-3-0.4-4.2-1.1c-1.2-0.8-2.2-1.8-2.8-3.1
			C376.7,124.2,376.4,122.9,376.4,121.4z M378.7,121.4c0,2,0.5,3.6,1.6,4.7s2.4,1.7,4,1.7s3-0.6,4.1-1.7c1.1-1.2,1.6-2.8,1.6-4.9
			c0-1.3-0.2-2.5-0.7-3.5s-1.1-1.8-2-2.3c-0.9-0.6-1.9-0.8-3-0.8c-1.6,0-2.9,0.5-4,1.6C379.2,117.2,378.7,119,378.7,121.4z"/>
		<path class="st3" d="M395.3,129.5v-16.6h3.3l3.9,11.7c0.4,1.1,0.6,1.9,0.8,2.5c0.2-0.6,0.5-1.5,0.9-2.7l4-11.5h2.9v16.6H409v-13.9
			l-4.8,13.9h-2l-4.8-14.1v14.1H395.3z"/>
		<path class="st3" d="M414.8,129.5v-16.6h6.2c1.1,0,1.9,0.1,2.5,0.2c0.8,0.1,1.5,0.4,2,0.8c0.6,0.4,1,0.9,1.3,1.6s0.5,1.4,0.5,2.3
			c0,1.4-0.4,2.6-1.3,3.6c-0.9,1-2.5,1.5-4.9,1.5h-4.2v6.7h-2.1V129.5z M417,120.8h4.3c1.4,0,2.4-0.3,3-0.8s0.9-1.3,0.9-2.2
			c0-0.7-0.2-1.3-0.5-1.8c-0.4-0.5-0.8-0.8-1.4-1c-0.4-0.1-1.1-0.1-2-0.1h-4.2L417,120.8L417,120.8z"/>
		<path class="st3" d="M427,129.5l6.4-16.6h2.4l6.8,16.6h-2.5l-1.9-5h-6.9l-1.8,5H427z M431.7,122.7h5.6l-1.7-4.6
			c-0.5-1.4-0.9-2.5-1.2-3.4c-0.2,1.1-0.5,2.1-0.9,3.2L431.7,122.7z"/>
		<path class="st3" d="M444.4,129.5v-16.6h2.2l8.7,13v-13h2.1v16.6h-2.2l-8.7-13v13H444.4z"/>
		<path class="st3" d="M466.1,129.5v-7l-6.4-9.5h2.7l3.3,5c0.6,0.9,1.2,1.9,1.7,2.8c0.5-0.9,1.1-1.8,1.8-2.9l3.2-4.9h2.6l-6.6,9.5v7
			H466.1z"/>
	</g>
</g>
</svg>
